<?xml version="1.0" standalone="no"?>
<!DOCTYPE svg PUBLIC "-//W3C//DTD SVG 20010904//EN"
 "http://www.w3.org/TR/2001/REC-SVG-20010904/DTD/svg10.dtd">
<svg version="1.0" xmlns="http://www.w3.org/2000/svg"
 width="400.000000pt" height="400.000000pt" viewBox="0 0 400.000000 400.000000"
 preserveAspectRatio="xMidYMid meet">
<metadata>
Created by potrace 1.11, written by Peter Selinger 2001-2013
</metadata>
<g transform="translate(0.000000,400.000000) scale(0.100000,-0.100000)"
fill="#000000" stroke="none">
<path d="M2186 3838 c-11 -43 -7 -98 8 -98 25 0 39 28 32 64 -9 46 -31 65 -40
34z"/>
<path d="M528 3653 c7 -3 16 -2 19 1 4 3 -2 6 -13 5 -11 0 -14 -3 -6 -6z"/>
<path d="M547 3633 c-11 -10 -8 -18 13 -41 23 -24 50 -29 50 -9 0 13 -40 57
-51 57 -3 0 -9 -3 -12 -7z"/>
<path d="M2130 3494 c0 -14 3 -14 15 -4 8 7 15 14 15 16 0 2 -7 4 -15 4 -8 0
-15 -7 -15 -16z"/>
<path d="M2191 3494 c0 -11 3 -14 6 -6 3 7 2 16 -1 19 -3 4 -6 -2 -5 -13z"/>
<path d="M1612 3406 c-7 -12 44 -56 66 -57 9 0 32 -1 50 -2 17 -1 32 1 32 6 0
8 -22 11 -62 8 -25 -2 -28 1 -28 27 0 26 -4 30 -26 28 -14 0 -28 -5 -32 -10z"/>
<path d="M2060 3390 c0 -16 5 -30 10 -30 6 0 10 14 10 30 0 17 -4 30 -10 30
-5 0 -10 -13 -10 -30z"/>
<path d="M2330 3366 c0 -13 6 -29 13 -35 11 -8 16 -5 25 15 17 36 15 44 -13
44 -20 0 -25 -5 -25 -24z"/>
<path d="M640 3340 c0 -5 6 -10 14 -10 8 0 19 -20 27 -47 l13 -48 4 38 c3 30
-2 42 -20 57 -26 22 -38 25 -38 10z"/>
<path d="M1763 3323 c-3 -10 -13 -26 -21 -36 -12 -13 -13 -20 -4 -29 7 -7 12
-25 12 -41 0 -21 4 -28 14 -24 7 3 19 0 25 -6 9 -9 13 -6 17 10 3 12 20 27 37
34 37 15 87 49 87 60 0 10 -68 16 -84 7 -21 -12 -46 1 -46 23 0 24 -29 25 -37
2z"/>
<path d="M1675 3320 c-3 -5 -1 -10 4 -10 6 0 11 5 11 10 0 6 -2 10 -4 10 -3 0
-8 -4 -11 -10z"/>
<path d="M2580 3225 c-7 -8 -16 -12 -21 -9 -5 3 -9 -1 -9 -9 0 -15 -32 -34
-65 -39 -11 -2 -28 -19 -37 -38 -9 -19 -17 -28 -18 -20 0 8 -4 22 -10 30 -7
12 -12 11 -27 -6 -23 -26 -66 -30 -61 -6 2 12 11 16 31 14 22 -3 27 1 27 17 0
19 -4 20 -47 14 -27 -3 -58 -13 -71 -21 -19 -12 -27 -13 -46 -2 -32 16 -57 10
-67 -19 -8 -19 -6 -22 6 -17 21 8 31 -22 13 -37 -8 -7 -22 -24 -31 -38 -14
-24 -22 -26 -62 -24 -25 2 -52 8 -60 15 -12 10 -16 9 -21 -5 -10 -25 10 -50
37 -49 13 1 44 3 68 5 29 2 46 -1 49 -9 2 -7 0 -12 -5 -10 -4 1 -22 -12 -40
-29 -28 -26 -39 -30 -87 -29 -30 0 -66 -6 -81 -14 -25 -13 -28 -13 -41 5 -8
10 -14 24 -14 31 0 17 49 54 71 54 22 0 23 8 9 44 -11 30 -23 32 -64 11 -39
-20 -56 -19 -56 5 0 21 -20 29 -20 8 0 -7 -7 -22 -15 -32 -15 -19 -15 -19 -29
-1 -8 11 -12 25 -9 32 7 18 -12 16 -27 -2 -15 -18 -37 -20 -43 -2 -4 9 -8 9
-23 -1 -11 -6 -30 -17 -43 -22 -18 -8 -22 -16 -18 -33 30 -117 35 -132 48
-129 7 2 30 -4 50 -13 30 -14 39 -25 49 -61 7 -25 9 -48 5 -52 -4 -4 -10 -1
-12 5 -3 7 -13 23 -23 35 -17 22 -33 25 -112 27 -33 1 -38 4 -38 25 0 14 5 28
10 31 6 3 10 17 10 31 0 22 -10 29 -34 25 -5 -1 -16 5 -26 14 -13 12 -20 13
-25 5 -5 -8 -11 -6 -20 6 -12 17 -14 16 -48 -4 -31 -18 -37 -19 -48 -6 -7 8
-18 13 -25 10 -8 -3 -17 2 -22 11 -8 13 -10 13 -16 -2 -5 -13 -9 -15 -20 -6
-18 15 -46 4 -46 -19 0 -9 -8 -24 -19 -34 -16 -15 -19 -15 -31 -1 -8 9 -25 15
-39 13 -21 -2 -26 -8 -26 -33 -1 -21 -8 -33 -24 -41 -12 -6 -36 -24 -52 -40
-31 -30 -28 -30 -102 1 -13 6 -20 2 -23 -11 -3 -11 -20 -28 -37 -39 -35 -23
-46 -45 -23 -45 9 0 16 -7 16 -15 0 -8 5 -15 10 -15 6 0 10 -7 10 -15 0 -9 -9
-15 -22 -15 -25 0 -91 47 -83 60 3 5 -2 13 -10 17 -17 10 -39 107 -44 192 -2
51 -18 7 -20 -58 -1 -20 -3 -22 -17 -10 -13 10 -17 10 -25 -2 -6 -10 -9 -3 -9
23 0 49 -16 56 -30 14 -9 -28 -8 -40 4 -65 9 -16 16 -43 16 -60 0 -60 46 -127
81 -118 10 3 23 -1 29 -8 14 -17 1 -45 -34 -72 -13 -10 -33 -38 -45 -61 -12
-24 -33 -47 -46 -52 -14 -5 -25 -13 -25 -18 0 -4 -18 -28 -40 -52 -21 -25 -44
-57 -51 -72 -6 -16 -15 -28 -19 -28 -4 0 -13 -13 -20 -29 -6 -16 -20 -37 -31
-47 -12 -11 -19 -30 -19 -55 0 -21 -4 -41 -10 -44 -5 -3 -10 -17 -10 -31 0
-13 5 -24 10 -24 6 0 10 -7 10 -15 0 -8 -7 -15 -16 -15 -14 0 -15 -2 -3 -17
10 -12 11 -17 2 -20 -7 -2 -10 -10 -7 -18 3 -7 1 -16 -5 -19 -7 -5 -7 -13 1
-26 9 -14 9 -25 0 -45 -7 -15 -10 -42 -6 -59 4 -22 1 -36 -9 -44 -11 -10 -13
-22 -6 -50 10 -46 9 -202 -2 -202 -4 0 -15 -24 -24 -52 -9 -29 -20 -61 -26
-70 -13 -25 -12 -32 12 -84 27 -57 18 -82 -46 -122 -57 -36 -111 -117 -125
-191 -6 -31 -13 -61 -15 -67 -2 -6 1 -31 5 -56 5 -25 10 -111 11 -190 2 -159
26 -313 59 -378 27 -54 83 -90 137 -90 l43 0 0 -100 0 -100 1325 0 1325 0 0
68 c0 48 6 79 20 107 11 22 20 51 20 65 0 45 27 169 42 192 9 13 18 47 21 76
3 29 13 64 21 77 9 14 16 35 16 47 1 22 1 22 15 4 13 -18 15 -18 21 -2 4 10
13 15 21 12 11 -4 13 -1 8 14 -4 12 0 26 9 35 10 11 13 26 9 45 -7 35 3 40 18
7 8 -18 9 -14 5 20 -4 39 -2 42 14 33 10 -5 21 -15 23 -22 7 -16 74 57 83 90
3 12 10 22 14 22 4 0 5 11 2 25 -3 18 0 25 11 25 29 0 89 102 114 195 12 45
55 125 63 120 6 -4 10 13 10 40 0 43 2 46 21 40 21 -7 22 -5 16 30 -3 21 -2
45 2 54 14 27 -13 182 -39 225 -13 21 -27 64 -31 95 -5 32 -15 60 -24 67 -12
9 -15 21 -9 48 6 37 -9 71 -27 60 -12 -7 -11 9 3 76 12 59 11 65 -21 115 -33
50 -81 153 -81 170 0 9 -29 47 -65 84 -36 37 -65 73 -65 81 0 10 3 10 15 0 9
-7 19 -9 23 -5 4 4 -18 30 -49 59 -56 50 -57 52 -52 95 3 28 13 52 27 63 11
11 17 21 11 24 -33 15 -36 21 -25 46 10 20 9 31 -4 54 -24 44 -58 82 -86 94
-70 30 -125 68 -128 85 -3 22 -83 65 -120 65 -13 0 -38 11 -56 25 -18 14 -40
25 -50 25 -9 0 -19 7 -22 15 -4 9 -19 15 -39 15 -19 0 -39 8 -49 19 -10 11
-28 21 -40 23 -11 2 -25 13 -31 25 -5 13 -22 27 -37 32 -16 6 -31 17 -34 26
-8 19 -28 19 -44 0z m20 -184 c22 -31 11 -53 -15 -31 -8 6 -19 9 -25 5 -11 -7
-13 14 -4 39 9 23 20 20 44 -13z m-180 -45 c0 -8 -8 -14 -17 -14 -10 0 -26 -3
-37 -7 -14 -6 -18 -5 -14 6 3 8 18 17 34 20 16 4 30 7 32 8 1 0 2 -5 2 -13z
m108 -18 c14 -14 16 -28 2 -28 -5 0 -14 9 -20 20 -12 22 -1 27 18 8z m-677
-69 c11 -5 18 -13 15 -17 -4 -6 -43 -8 -65 -3 -5 1 20 31 26 31 2 0 13 -5 24
-11z m629 4 c-1 -10 -70 -45 -70 -36 0 3 7 15 17 25 16 18 53 25 53 11z m79
-12 c18 -11 5 -31 -20 -31 -23 0 -24 -8 -2 -32 20 -22 17 -25 -26 -33 -46 -8
-62 8 -49 46 14 41 68 68 97 50z m-312 -27 c-3 -3 -12 -4 -19 -1 -8 3 -5 6 6
6 11 1 17 -2 13 -5z m-67 -34 c18 -18 28 -50 14 -50 -3 0 -15 5 -26 11 -14 8
-23 8 -31 0 -26 -26 -37 2 -17 40 14 24 35 24 60 -1z m-1413 -62 c-3 -8 -6 -5
-6 6 -1 11 2 17 5 13 3 -3 4 -12 1 -19z m1128 2 c3 -11 12 -20 18 -21 19 -2
-36 -17 -64 -18 -30 -1 -46 24 -28 45 18 22 66 18 74 -6z m-415 -51 c0 -5 -4
-9 -10 -9 -5 0 -10 7 -10 16 0 8 5 12 10 9 6 -3 10 -10 10 -16z m905 -29 c3
-5 -1 -10 -10 -10 -9 0 -13 5 -10 10 3 6 8 10 10 10 2 0 7 -4 10 -10z m-605
-25 c0 -8 -7 -15 -15 -15 -16 0 -20 12 -8 23 11 12 23 8 23 -8z m540 -16 c0
-11 -4 -17 -10 -14 -5 3 -10 13 -10 21 0 8 5 14 10 14 6 0 10 -9 10 -21z
m-1480 -34 c0 -8 -4 -15 -10 -15 -5 0 -10 7 -10 15 0 8 5 15 10 15 6 0 10 -7
10 -15z m757 -61 c5 -14 -45 -25 -53 -13 -9 15 7 30 29 27 11 -2 22 -8 24 -14z
m-400 -446 c-3 -8 -6 -5 -6 6 -1 11 2 17 5 13 3 -3 4 -12 1 -19z m-270 -4 c3
-10 0 -22 -8 -28 -8 -6 -14 -17 -15 -23 -2 -29 -5 -33 -18 -33 -25 0 -26 15
-5 58 22 45 36 52 46 26z m293 -74 c0 -5 -4 -10 -10 -10 -5 0 -10 5 -10 10 0
6 5 10 10 10 6 0 10 -4 10 -10z m535 -190 c3 -5 -1 -10 -9 -10 -9 0 -16 5 -16
10 0 6 4 10 9 10 6 0 13 -4 16 -10z m-135 -239 c0 -6 -4 -13 -10 -16 -5 -3
-10 1 -10 9 0 9 5 16 10 16 6 0 10 -4 10 -9z m-230 -475 c0 -14 -24 -29 -33
-19 -3 3 -3 11 0 19 7 18 33 18 33 0z m355 -205 c-9 -16 -25 -3 -18 15 4 10 9
12 15 6 6 -6 7 -15 3 -21z"/>
<path d="M1160 3079 c7 -11 14 -18 17 -15 8 8 -5 36 -17 36 -7 0 -7 -6 0 -21z"/>
<path d="M865 2680 c-3 -5 -1 -10 4 -10 6 0 11 5 11 10 0 6 -2 10 -4 10 -3 0
-8 -4 -11 -10z"/>
</g>
</svg>
